<?xml version="1.0" encoding="utf-8"?>
<!-- Generator: Adobe Illustrator 25.2.2, SVG Export Plug-In . SVG Version: 6.00 Build 0)  -->
<svg version="1.1" xmlns="http://www.w3.org/2000/svg" xmlns:xlink="http://www.w3.org/1999/xlink" x="0px" y="0px"
	 viewBox="0 0 150 150" style="enable-background:new 0 0 150 150;" xml:space="preserve">
<g id="Layer_1">
	<path d="M82.1,102.2c-17.4,0-31.9,12.1-35.8,28.2h-1c0-6.1,0-24.5,0-48.4c15.1,0,36.9,0,36.9,0c0,0,0-14.2,0-14.2H45.2
		c0-23.9,0-42.3,0-48.4h1c3.9,16.2,18.5,28.2,35.8,28.2c20.3,0,36.9-16.5,36.9-36.9h-14.2c0,12.5-10.2,22.7-22.7,22.7
		c-12.5,0-22.7-10.2-22.7-22.7H31v128.2h28.4c0-12.5,10.2-22.7,22.7-22.7c12.5,0,22.7,10.2,22.7,22.7H119
		C119,118.8,102.4,102.2,82.1,102.2z"/>
</g>
<g id="Layer_2">
</g>
</svg>
