<?xml version="1.0" encoding="utf-8"?>
<!-- Generator: Adobe Illustrator 25.2.3, SVG Export Plug-In . SVG Version: 6.00 Build 0)  -->
<svg version="1.1" id="Layer_1" xmlns="http://www.w3.org/2000/svg" xmlns:xlink="http://www.w3.org/1999/xlink" x="0px" y="0px"
	 viewBox="0 0 640 480" style="enable-background:new 0 0 640 480;" xml:space="preserve">
<g>
	<circle cx="320" cy="240" r="18.7"/>
</g>
<g>
	<g>
		<g>
			<path d="M320,334.38c-52.04,0-94.38-42.34-94.38-94.38s42.34-94.38,94.38-94.38c52.04,0,94.38,42.34,94.38,94.38
				S372.04,334.38,320,334.38z M320,180.62c-32.74,0-59.38,26.64-59.38,59.38c0,32.74,26.64,59.38,59.38,59.38
				s59.38-26.64,59.38-59.38C379.38,207.26,352.74,180.62,320,180.62z"/>
		</g>
	</g>
	<g>
		<g>
			<path d="M320,410.8c-94.18,0-170.8-76.62-170.8-170.8c0-94.18,76.62-170.8,170.8-170.8c94.18,0,170.8,76.62,170.8,170.8
				C490.8,334.18,414.18,410.8,320,410.8z M320,104.2c-74.88,0-135.8,60.92-135.8,135.8c0,74.88,60.92,135.8,135.8,135.8
				S455.8,314.88,455.8,240C455.8,165.12,394.88,104.2,320,104.2z"/>
		</g>
	</g>
</g>
</svg>
